<svg xmlns="http://www.w3.org/2000/svg" viewBox="0 0 512 128">
  <g fill="#000">
    <path d="M60 14L20 114h25l8-20h54l8 20h25L100 14H60zm20 25l17 40H63l17-40z"/>
    <path d="M180 78c0-13-9-20-25-23l-17-2.5c-7-1-9-3-9-7 0-5 4.5-8 13-8 10 0 16 4 17 11h23c-2-20-18-32-39-32-24 0-39 13-39 32 0 13 8 20 24 23l17 2.5c7 1 9 3 9 7 0 5-5 8-14 8-11 0-17-4-18-12h-23c1 21 18 34 41 34 25 0 40-13 40-32z"/>
    <path d="M220 14v100h50c18 0 32-14 32-32v-2c0-13-8-24-20-29l25-37h-28l-22 35h-14V14h-23zm23 55h25c6 0 11 5 11 11s-5 11-11 11h-25V69z"/>
    <path d="M365 14c-30 0-52 22-52 50s22 50 52 50c20 0 37-10 46-25l-20-11c-5 9-14 14-26 14-18 0-30-13-30-28s12-28 30-28c12 0 21 5 26 14l20-11c-9-15-26-25-46-25z"/>
    <path d="M430 14v100h23V78l35 36h32l-40-40 38-60h-30l-24 42-11-12V14h-23z"/>
  </g>
</svg>
</svg>