<svg xmlns="http://www.w3.org/2000/svg" viewBox="0 0 512 128">
  <g fill="#000">
    <path d="M89.6 12.8L44.8 115.2h25.6l8-19.2h46.4l8 19.2h25.6L112 12.8H89.6zm11.2 25.6l14.4 38.4H86.4l14.4-38.4z"/>
    <path d="M204.8 70.4c0-12.8-8-19.2-24-21.6l-16-2.4c-6.4-.8-8.8-2.4-8.8-6.4 0-4.8 4-7.2 12-7.2 9.6 0 14.4 3.2 15.2 10.4h22.4c-1.6-19.2-16.8-30.4-36.8-30.4-22.4 0-36.8 12-36.8 30.4 0 12 7.2 18.4 22.4 20.8l16 2.4c6.4.8 8.8 2.4 8.8 6.4 0 4.8-4.8 7.2-12.8 7.2-10.4 0-16-4-16.8-11.2h-22.4c.8 20 16.8 32 38.4 32 23.2 0 38.4-12 38.4-30.4z"/>
    <path d="M272 76.8c0 9.6-5.6 15.2-14.4 15.2-9.6 0-14.4-5.6-14.4-15.2V12.8h-22.4v65.6c0 20.8 14.4 33.6 36.8 33.6s36.8-12.8 36.8-33.6V12.8H272v64z"/>
    <path d="M364.8 70.4c0-12.8-8-19.2-24-21.6l-16-2.4c-6.4-.8-8.8-2.4-8.8-6.4 0-4.8 4-7.2 12-7.2 9.6 0 14.4 3.2 15.2 10.4h22.4c-1.6-19.2-16.8-30.4-36.8-30.4-22.4 0-36.8 12-36.8 30.4 0 12 7.2 18.4 22.4 20.8l16 2.4c6.4.8 8.8 2.4 8.8 6.4 0 4.8-4.8 7.2-12.8 7.2-10.4 0-16-4-16.8-11.2h-22.4c.8 20 16.8 32 38.4 32 23.2 0 38.4-12 38.4-30.4z"/>
  </g>
</svg>