<svg xmlns="http://www.w3.org/2000/svg" viewBox="0 0 512 128">
  <g fill="#000">
    <path d="M50 10C22.4 10 0 32.4 0 60v8c0 27.6 22.4 50 50 50h8c27.6 0 50-22.4 50-50V58H58v20h30c-5 15.4-19.3 26-36 26-21 0-38-17-38-38s17-38 38-38c11 0 21 5 28 13l14-14C84 17 68 10 52 10h-2z"/>
    <path d="M130 14v100h20V14h-20z"/>
    <path d="M180 14v100h20V74h40c15 0 27-12 27-27v-6c0-15-12-27-27-27h-60zm20 20h38c5.5 0 10 4.5 10 10s-4.5 10-10 10h-38V34z"/>
    <path d="M290 14l46 100h22l-46-100h-22z"/>
    <path d="M350 14v100h20V14h-20z"/>
    <path d="M400 14v100h65c15 0 27-12 27-27V41c0-15-12-27-27-27h-65zm20 20h43c5.5 0 10 4.5 10 10v30c0 5.5-4.5 10-10 10h-43V34z"/>
  </g>
</svg>