<svg viewBox="0 0 48 48" xmlns="http://www.w3.org/2000/svg">
  <!-- Stack of books -->
  <path fill="#4caf50" d="M38 34H10c-1.1 0-2 .9-2 2v6c0 1.1.9 2 2 2h28c1.1 0 2-.9 2-2v-6c0-1.1-.9-2-2-2z"/>
  <path fill="#2196f3" d="M38 22H10c-1.1 0-2 .9-2 2v6c0 1.1.9 2 2 2h28c1.1 0 2-.9 2-2v-6c0-1.1-.9-2-2-2z"/>
  <path fill="#9c27b0" d="M38 10H10c-1.1 0-2 .9-2 2v6c0 1.1.9 2 2 2h28c1.1 0 2-.9 2-2v-6c0-1.1-.9-2-2-2z"/>
  <!-- Strap -->
  <path fill="#e91e63" d="M22 6h4v38h-4z"/>
  <!-- Buckle -->
  <rect x="20" y="20" width="8" height="6" rx="1" fill="#fdd835"/>
</svg>